HIERARCHY
ROOT Hips
{
	OFFSET 0.000000 35.082581 0.000000
	CHANNELS 6 Xposition Yposition Zposition Xrotation Yrotation Zrotation 
	JOINT Spine
	{
		OFFSET 0.000000 6.876099 0.125700
		CHANNELS 3 Xrotation Yrotation Zrotation
		JOINT Spine1
		{
			OFFSET 0.000000 5.730043 0.104720
			CHANNELS 3 Xrotation Yrotation Zrotation
			JOINT Spine1_split
			{
				OFFSET 0.000000 5.730043 0.104720
				CHANNELS 3 Xrotation Yrotation Zrotation
				JOINT Spine2
				{
					OFFSET 0.000000 5.730043 0.104720
					CHANNELS 3 Xrotation Yrotation Zrotation
					JOINT Neck
					{
						OFFSET 0.000000 10.314075 0.188496
						CHANNELS 3 Xrotation Yrotation Zrotation
						JOINT Head
						{
							OFFSET 0.000000 7.643700 -2.377400
							CHANNELS 3 Xrotation Yrotation Zrotation
							JOINT HeadTop_End
							{
								OFFSET 0.000000 43.788605 -13.619600
								CHANNELS 3 Xrotation Yrotation Zrotation
								End Site
								{
									OFFSET 0.000000 0.000000 0.000000
								}
							}
						}
					}
					JOINT LeftShoulder
					{
						OFFSET 2.196100 4.412489 0.087492
						CHANNELS 3 Xrotation Yrotation Zrotation
						JOINT LeftShoulder_split
						{
							OFFSET 2.196100 4.412489 0.087492
							CHANNELS 3 Xrotation Yrotation Zrotation
							JOINT LeftArm
							{
								OFFSET 8.771219 -2.981674 -0.026999
								CHANNELS 3 Xrotation Yrotation Zrotation
								JOINT LeftForeArm
								{
									OFFSET 8.512804 0.000000 -0.000000
									CHANNELS 3 Xrotation Yrotation Zrotation
									JOINT LeftHand
									{
										OFFSET 18.484802 0.000000 -0.000000
										CHANNELS 3 Xrotation Yrotation Zrotation
										JOINT LeftHandThumb1
										{
											OFFSET 2.499420 -1.158070 2.653252
											CHANNELS 3 Xrotation Yrotation Zrotation
											JOINT LeftHandThumb2
											{
												OFFSET 2.370079 -1.368366 1.368366
												CHANNELS 3 Xrotation Yrotation Zrotation
												JOINT LeftHandThumb3
												{
													OFFSET 2.676727 -1.545410 1.545409
													CHANNELS 3 Xrotation Yrotation Zrotation
													JOINT LeftHandThumb4
													{
														OFFSET 1.692226 -0.977005 0.977007
														CHANNELS 3 Xrotation Yrotation Zrotation
														End Site
														{
															OFFSET 0.000000 0.000000 0.000000
														}
													}
												}
											}
										}
										JOINT LeftHandIndex1
										{
											OFFSET 7.924831 -0.457527 2.345128
											CHANNELS 3 Xrotation Yrotation Zrotation
											JOINT LeftHandIndex2
											{
												OFFSET 3.643303 0.000000 0.000000
												CHANNELS 3 Xrotation Yrotation Zrotation
												JOINT LeftHandIndex3
												{
													OFFSET 3.810799 0.000000 0.000000
													CHANNELS 3 Xrotation Yrotation Zrotation
													JOINT LeftHandIndex4
													{
														OFFSET 2.403702 0.000000 0.000000
														CHANNELS 3 Xrotation Yrotation Zrotation
														End Site
														{
															OFFSET 0.000000 0.000000 0.000000
														}
													}
												}
											}
										}
										JOINT LeftHandMiddle1
										{
											OFFSET 8.563995 0.000000 -0.000000
											CHANNELS 3 Xrotation Yrotation Zrotation
											JOINT LeftHandMiddle2
											{
												OFFSET 3.861618 0.000000 0.000000
												CHANNELS 3 Xrotation Yrotation Zrotation
												JOINT LeftHandMiddle3
												{
													OFFSET 3.701603 0.000000 0.000000
													CHANNELS 3 Xrotation Yrotation Zrotation
													JOINT LeftHandMiddle4
													{
														OFFSET 2.322544 0.000000 0.000000
														CHANNELS 3 Xrotation Yrotation Zrotation
														End Site
														{
															OFFSET 0.000000 0.000000 0.000000
														}
													}
												}
											}
										}
										JOINT LeftHandRing1
										{
											OFFSET 8.426460 -0.424637 -3.286992
											CHANNELS 3 Xrotation Yrotation Zrotation
											JOINT LeftHandRing2
											{
												OFFSET 3.126408 0.000000 0.000000
												CHANNELS 3 Xrotation Yrotation Zrotation
												JOINT LeftHandRing3
												{
													OFFSET 3.085026 0.000000 0.000000
													CHANNELS 3 Xrotation Yrotation Zrotation
													JOINT LeftHandRing4
													{
														OFFSET 1.644005 0.000000 0.000000
														CHANNELS 3 Xrotation Yrotation Zrotation
														End Site
														{
															OFFSET 0.000000 0.000000 0.000000
														}
													}
												}
											}
										}
									}
								}
							}
						}
					}
					JOINT RightShoulder
					{
						OFFSET -2.196100 4.412496 0.070690
						CHANNELS 3 Xrotation Yrotation Zrotation
						JOINT RightShoulder_split
						{
							OFFSET -2.196100 4.412496 0.070690
							CHANNELS 3 Xrotation Yrotation Zrotation
							JOINT RightArm
							{
								OFFSET -8.771282 -2.981682 -0.094208
								CHANNELS 3 Xrotation Yrotation Zrotation
								JOINT RightForeArm
								{
									OFFSET -8.494598 0.000000 0.000000
									CHANNELS 3 Xrotation Yrotation Zrotation
									JOINT RightHand
									{
										OFFSET -18.483803 0.000000 0.000001
										CHANNELS 3 Xrotation Yrotation Zrotation
										JOINT RightHandThumb1
										{
											OFFSET -2.527351 -1.008072 2.575253
											CHANNELS 3 Xrotation Yrotation Zrotation
											JOINT RightHandThumb2
											{
												OFFSET -2.321518 -1.340328 1.340329
												CHANNELS 3 Xrotation Yrotation Zrotation
												JOINT RightHandThumb3
												{
													OFFSET -2.657753 -1.534454 1.534455
													CHANNELS 3 Xrotation Yrotation Zrotation
													JOINT RightHandThumb4
													{
														OFFSET -1.807510 -1.043568 1.043567
														CHANNELS 3 Xrotation Yrotation Zrotation
														End Site
														{
															OFFSET 0.000000 0.000000 0.000000
														}
													}
												}
											}
										}
										JOINT RightHandIndex1
										{
											OFFSET -8.811420 0.015533 2.887987
											CHANNELS 3 Xrotation Yrotation Zrotation
											JOINT RightHandIndex2
											{
												OFFSET -3.537502 0.000000 0.000000
												CHANNELS 3 Xrotation Yrotation Zrotation
												JOINT RightHandIndex3
												{
													OFFSET -3.356201 0.000000 0.000000
													CHANNELS 3 Xrotation Yrotation Zrotation
													JOINT RightHandIndex4
													{
														OFFSET -1.933098 0.000000 0.000000
														CHANNELS 3 Xrotation Yrotation Zrotation
														End Site
														{
															OFFSET 0.000000 0.000000 0.000000
														}
													}
												}
											}
										}
										JOINT RightHandMiddle1
										{
											OFFSET -8.178135 0.000000 0.000000
											CHANNELS 3 Xrotation Yrotation Zrotation
											JOINT RightHandMiddle2
											{
												OFFSET -3.901302 0.000000 0.000000
												CHANNELS 3 Xrotation Yrotation Zrotation
												JOINT RightHandMiddle3
												{
													OFFSET -3.909599 0.000000 0.000000
													CHANNELS 3 Xrotation Yrotation Zrotation
													JOINT RightHandMiddle4
													{
														OFFSET -2.376003 0.000000 0.000000
														CHANNELS 3 Xrotation Yrotation Zrotation
														End Site
														{
															OFFSET 0.000000 0.000000 0.000000
														}
													}
												}
											}
										}
										JOINT RightHandRing1
										{
											OFFSET -7.559013 0.014137 -2.865403
											CHANNELS 3 Xrotation Yrotation Zrotation
											JOINT RightHandRing2
											{
												OFFSET -3.449306 0.000000 0.000000
												CHANNELS 3 Xrotation Yrotation Zrotation
												JOINT RightHandRing3
												{
													OFFSET -3.362106 0.000000 0.000000
													CHANNELS 3 Xrotation Yrotation Zrotation
													JOINT RightHandRing4
													{
														OFFSET -2.076401 0.000000 0.000000
														CHANNELS 3 Xrotation Yrotation Zrotation
														End Site
														{
															OFFSET 0.000000 0.000000 0.000000
														}
													}
												}
											}
										}
									}
								}
							}
						}
					}
				}
			}
		}
	}
	JOINT LeftUpLeg
	{
		OFFSET 10.205400 -3.823500 0.155100
		CHANNELS 3 Xrotation Yrotation Zrotation
		JOINT LeftLeg
		{
			OFFSET 0.708757 -12.982077 0.567790
			CHANNELS 3 Xrotation Yrotation Zrotation
			JOINT LeftFoot
			{
				OFFSET -0.708756 -10.717838 -2.184338
				CHANNELS 3 Xrotation Yrotation Zrotation
				JOINT LeftToeBase
				{
					OFFSET 0.108149 -7.191104 7.560241
					CHANNELS 3 Xrotation Yrotation Zrotation
					JOINT LeftToe_End
					{
						OFFSET 0.070230 0.081724 4.490308
						CHANNELS 3 Xrotation Yrotation Zrotation
						End Site
						{
							OFFSET 0.000000 0.000000 0.000000
						}
					}
				}
			}
		}
	}
	JOINT RightUpLeg
	{
		OFFSET -10.205400 -3.823500 0.005500
		CHANNELS 3 Xrotation Yrotation Zrotation
		JOINT RightLeg
		{
			OFFSET -0.708756 -12.982134 0.610632
			CHANNELS 3 Xrotation Yrotation Zrotation
			JOINT RightFoot
			{
				OFFSET 0.708754 -10.717769 -1.945823
				CHANNELS 3 Xrotation Yrotation Zrotation
				JOINT RightToeBase
				{
					OFFSET -0.108140 -7.191069 7.372968
					CHANNELS 3 Xrotation Yrotation Zrotation
					JOINT RightToe_End
					{
						OFFSET -0.070227 0.081735 4.479403
						CHANNELS 3 Xrotation Yrotation Zrotation
						End Site
						{
							OFFSET 0.000000 0.000000 0.000000
						}
					}
				}
			}
		}
	}
}
MOTION
Frames: 4
Frame Time: 0.016667
-14.925697 33.136520 -15.771149 4.586774 0.891420 -0.452097 1.786368 0.729173 -6.686025 2.669529 2.765866 -1.144404 0.000000 0.000000 0.000000 2.711149 2.741214 -1.111865 -0.169240 1.518460 2.033062 -4.044500 8.985415 5.077303 0.000000 0.000000 0.000000 1.433974 -4.062824 -11.219160 0.000000 0.000000 0.000000 -3.341576 24.380992 -39.671303 0.000019 -68.585864 0.000027 0.243770 -28.052581 -0.273038 -1.540045 3.690167 6.142340 3.946752 7.971410 0.752854 -0.575594 1.586253 2.542375 -0.000004 0.000003 -0.000003 -0.000012 0.000014 -0.000016 0.000008 -0.000010 -0.000004 -0.000002 0.000005 0.000002 0.000004 -0.000002 -0.000001 -0.000012 -0.001921 0.015957 -0.000003 0.001931 -0.015978 0.000002 -0.000003 0.000005 0.000001 -0.000001 -0.000001 -0.000014 0.000009 -0.000008 -0.000002 0.000001 -0.000019 0.000008 -0.000003 0.000003 0.000001 0.000001 0.000001 0.748690 -2.655716 10.687503 0.000000 0.000000 0.000000 -17.948788 -16.241860 40.821264 -0.000005 12.072943 0.000002 3.899479 8.202199 6.283300 -1.849261 -3.581794 -6.586132 4.645036 -8.656819 -0.231316 -1.269828 0.126066 -2.098689 -0.000000 -0.000002 -0.000000 -0.000001 -0.000003 -0.000003 -0.000007 0.000000 0.000004 0.000005 0.000002 0.000009 -0.000002 -0.000001 0.000002 -0.000005 -0.000002 -0.000000 -0.000005 0.000008 0.000001 -0.000000 0.000001 0.000020 0.000001 -0.000002 0.000004 -0.000006 -0.000010 0.000003 0.000005 0.000003 0.000011 0.000002 0.000005 0.000000 -0.000000 0.000000 0.000003 -51.314064 -1.922880 10.275430 59.346312 7.247655 0.841095 12.025275 12.596066 -6.763310 -4.527595 0.429781 -5.411061 0.000002 -0.000002 0.000000 10.707760 -12.357909 -9.132333 18.792185 -6.730218 -0.540052 -16.468225 -6.820203 18.702154 -10.424686 -0.006387 0.189351 0.000000 0.000002 -0.000000 
-14.677574 33.367214 -15.966394 4.764160 0.083996 -0.228523 1.618206 1.131149 -6.951144 2.374025 3.259591 -1.400063 0.000000 0.000000 0.000000 2.430398 3.238700 -1.364456 -0.224067 1.432990 2.227389 -4.033163 8.722014 5.409510 -0.000001 0.000000 0.000000 1.467533 -4.240654 -11.592376 0.000000 0.000000 0.000000 5.654166 26.367489 -43.866828 0.000032 -67.796738 0.000040 0.073295 -29.850225 1.113491 -1.540046 3.690168 6.142341 3.946752 7.971406 0.752857 -0.575592 1.586254 2.542375 -0.000001 0.000001 -0.000002 -0.000008 0.000017 -0.000011 0.000004 -0.000008 -0.000004 -0.000001 0.000004 0.000001 -0.000001 0.000001 -0.000001 -0.000010 -0.001914 0.015962 0.000005 0.001931 -0.015979 0.000006 0.000000 0.000005 -0.000000 0.000002 0.000000 -0.000005 0.000014 -0.000008 -0.000001 -0.000003 -0.000020 0.000006 -0.000003 -0.000000 -0.000003 -0.000000 -0.000000 0.734778 -2.719264 10.596665 0.000000 0.000000 0.000000 -18.801313 -15.324282 39.607079 0.000001 12.657099 -0.000012 3.908925 3.805295 10.426496 -1.849260 -3.581787 -6.586139 4.645044 -8.656814 -0.231311 -1.269829 0.126065 -2.098688 0.000003 -0.000002 -0.000002 0.000001 0.000004 -0.000004 -0.000007 0.000002 0.000007 0.000004 0.000004 0.000002 -0.000001 -0.000000 -0.000000 -0.000009 -0.000002 -0.000000 -0.000004 0.000009 -0.000001 0.000002 0.000001 0.000012 -0.000000 0.000002 0.000000 -0.000005 -0.000001 0.000003 0.000005 0.000002 0.000020 0.000001 0.000005 0.000000 0.000002 -0.000001 0.000003 -48.088254 -2.089413 11.855757 60.418603 7.115114 0.936818 11.178202 14.795872 -4.589615 -6.907199 0.856882 -7.540864 -0.000000 0.000001 -0.000000 8.409612 -12.023714 -11.407624 19.547542 -5.193522 -0.105738 -14.994743 -5.756856 19.584661 -10.688681 0.017440 -0.510904 0.000000 -0.000002 0.000000 
-14.409630 33.526588 -16.143147 5.089247 -0.604547 -0.066717 1.424394 1.514642 -7.131676 2.032631 3.712428 -1.607214 0.000000 0.000000 0.000000 2.103377 3.696490 -1.570153 -0.275676 1.345612 2.361039 -3.983146 8.395971 5.665070 0.000000 -0.000001 0.000000 1.481607 -4.316648 -11.747564 0.000000 0.000000 0.000000 12.772037 27.916462 -48.290892 -0.000001 -66.123963 -0.000003 0.079347 -30.831590 0.943962 -1.540052 3.690168 6.142337 3.946759 7.971407 0.752855 -0.575596 1.586253 2.542376 -0.000006 0.000002 -0.000000 -0.000008 0.000011 -0.000013 0.000009 -0.000007 -0.000002 0.000001 0.000000 0.000001 -0.000001 -0.000004 -0.000001 -0.000009 -0.001920 0.015959 0.000002 0.001927 -0.015977 0.000008 -0.000003 0.000006 -0.000000 0.000002 0.000001 -0.000007 0.000009 -0.000004 0.000002 -0.000005 -0.000020 0.000007 0.000000 0.000003 -0.000001 -0.000001 -0.000000 0.715793 -2.807273 10.473048 0.000000 0.000000 0.000000 -19.463261 -14.733597 38.616691 -0.000006 13.178803 0.000018 4.426784 0.064401 14.071439 -1.849258 -3.581782 -6.586138 4.645043 -8.656821 -0.231313 -1.269830 0.126069 -2.098681 0.000002 0.000000 -0.000000 0.000001 -0.000002 0.000002 -0.000008 0.000003 0.000007 0.000004 0.000005 0.000001 -0.000002 0.000000 0.000002 -0.000013 -0.000007 0.000005 -0.000006 0.000010 -0.000001 -0.000001 0.000002 0.000014 -0.000000 -0.000001 0.000002 -0.000007 -0.000006 0.000006 0.000003 0.000003 0.000017 0.000000 0.000005 -0.000002 0.000000 -0.000001 -0.000001 -44.790758 -2.189550 13.586205 60.527265 7.005988 1.036687 10.205333 17.158649 -3.055276 -7.897953 0.980525 -7.971770 0.000000 -0.000002 -0.000000 6.051927 -11.553674 -13.601559 20.371987 -3.362751 0.412495 -13.739606 -4.945982 20.438293 -10.936802 0.040457 -1.290770 -0.000000 -0.000002 0.000000 
-14.121482 33.632908 -16.299107 5.520512 -1.077217 -0.008162 1.217225 1.859104 -7.180294 1.667889 4.119295 -1.757984 0.000000 0.000000 0.000000 1.751484 4.109059 -1.720882 -0.329439 1.250091 2.443577 -3.904389 7.989617 5.840144 -0.000000 0.000000 -0.000000 1.475787 -4.286669 -11.679640 0.000000 0.000000 0.000000 17.858436 29.300378 -52.334378 -0.000001 -63.835296 -0.000022 0.424026 -30.787160 -0.397627 -1.540051 3.690168 6.142337 3.946757 7.971405 0.752855 -0.575593 1.586255 2.542377 0.000001 0.000004 -0.000000 -0.000010 0.000015 -0.000014 0.000002 -0.000009 -0.000006 0.000002 0.000002 0.000004 0.000002 0.000002 -0.000002 -0.000011 -0.001916 0.015960 0.000005 0.001930 -0.015981 0.000005 -0.000008 0.000006 0.000000 -0.000002 0.000000 -0.000009 0.000012 -0.000007 0.000003 0.000001 -0.000022 0.000007 -0.000008 0.000001 -0.000000 0.000001 -0.000001 0.694858 -2.907714 10.339709 0.000000 0.000000 0.000000 -19.916140 -14.501846 37.786748 -0.000005 13.690953 -0.000002 5.062895 -2.860965 16.812046 -1.849256 -3.581783 -6.586138 4.645048 -8.656817 -0.231310 -1.269829 0.126065 -2.098685 -0.000000 -0.000000 0.000001 0.000011 0.000006 -0.000009 -0.000007 0.000001 0.000008 0.000003 0.000004 0.000009 0.000000 -0.000000 0.000000 0.000004 0.000004 -0.000008 -0.000005 0.000009 0.000006 0.000000 0.000000 0.000013 -0.000000 0.000000 -0.000002 0.000005 0.000005 -0.000011 0.000004 0.000002 0.000017 0.000003 0.000005 0.000001 -0.000000 0.000001 -0.000001 -41.454973 -2.168413 15.415138 59.711262 6.941338 1.133178 8.935760 19.619558 -1.879984 -7.212321 0.848795 -7.370739 0.000002 0.000001 0.000001 3.998284 -11.033627 -15.451502 20.723518 -1.233923 0.897919 -12.501373 -4.625225 21.191572 -11.255218 0.055338 -1.930722 0.000000 0.000000 -0.000000 
